<mxfile host="Electron" modified="2023-12-11T14:15:27.877Z" agent="Mozilla/5.0 (Windows NT 10.0; Win64; x64) AppleWebKit/537.36 (KHTML, like Gecko) draw.io/22.1.2 Chrome/114.0.5735.289 Electron/25.9.4 Safari/537.36" etag="ZeI3ONmJ8uYrekVFr_Xq" version="22.1.2" type="device">
  <diagram name="Страница — 1" id="Euind1A_HzxTXGBl-jJP">
    <mxGraphModel dx="1562" dy="2086" grid="1" gridSize="10" guides="1" tooltips="1" connect="1" arrows="1" fold="1" page="1" pageScale="1" pageWidth="827" pageHeight="1169" math="0" shadow="0">
      <root>
        <mxCell id="0" />
        <mxCell id="1" parent="0" />
        <mxCell id="ZThz1ZOhO6zzR9WhR8qe-9" style="edgeStyle=orthogonalEdgeStyle;rounded=0;orthogonalLoop=1;jettySize=auto;html=1;exitX=0.5;exitY=0;exitDx=0;exitDy=0;entryX=0;entryY=0.5;entryDx=0;entryDy=0;" edge="1" parent="1" source="ZThz1ZOhO6zzR9WhR8qe-1" target="ZThz1ZOhO6zzR9WhR8qe-8">
          <mxGeometry relative="1" as="geometry" />
        </mxCell>
        <mxCell id="ZThz1ZOhO6zzR9WhR8qe-14" style="edgeStyle=orthogonalEdgeStyle;rounded=0;orthogonalLoop=1;jettySize=auto;html=1;exitX=0.5;exitY=1;exitDx=0;exitDy=0;entryX=0.5;entryY=0;entryDx=0;entryDy=0;" edge="1" parent="1" source="ZThz1ZOhO6zzR9WhR8qe-1" target="ZThz1ZOhO6zzR9WhR8qe-4">
          <mxGeometry relative="1" as="geometry" />
        </mxCell>
        <mxCell id="ZThz1ZOhO6zzR9WhR8qe-1" value="xml Данные для файла" style="rounded=0;whiteSpace=wrap;html=1;" vertex="1" parent="1">
          <mxGeometry x="80" y="170" width="120" height="60" as="geometry" />
        </mxCell>
        <mxCell id="ZThz1ZOhO6zzR9WhR8qe-15" style="edgeStyle=orthogonalEdgeStyle;rounded=0;orthogonalLoop=1;jettySize=auto;html=1;exitX=0.5;exitY=1;exitDx=0;exitDy=0;entryX=1;entryY=0.5;entryDx=0;entryDy=0;" edge="1" parent="1" source="ZThz1ZOhO6zzR9WhR8qe-2" target="ZThz1ZOhO6zzR9WhR8qe-1">
          <mxGeometry relative="1" as="geometry" />
        </mxCell>
        <mxCell id="ZThz1ZOhO6zzR9WhR8qe-2" value="Валидация при помощи xsd" style="ellipse;whiteSpace=wrap;html=1;" vertex="1" parent="1">
          <mxGeometry x="470" y="140" width="120" height="80" as="geometry" />
        </mxCell>
        <mxCell id="ZThz1ZOhO6zzR9WhR8qe-7" style="edgeStyle=orthogonalEdgeStyle;rounded=0;orthogonalLoop=1;jettySize=auto;html=1;exitX=0.5;exitY=1;exitDx=0;exitDy=0;" edge="1" parent="1" source="ZThz1ZOhO6zzR9WhR8qe-4" target="ZThz1ZOhO6zzR9WhR8qe-6">
          <mxGeometry relative="1" as="geometry" />
        </mxCell>
        <mxCell id="ZThz1ZOhO6zzR9WhR8qe-4" value="Преобразование xslt" style="rounded=0;whiteSpace=wrap;html=1;" vertex="1" parent="1">
          <mxGeometry x="80" y="320" width="120" height="60" as="geometry" />
        </mxCell>
        <mxCell id="ZThz1ZOhO6zzR9WhR8qe-6" value="Выходной файл" style="rounded=0;whiteSpace=wrap;html=1;" vertex="1" parent="1">
          <mxGeometry x="80" y="490" width="120" height="60" as="geometry" />
        </mxCell>
        <mxCell id="ZThz1ZOhO6zzR9WhR8qe-11" style="edgeStyle=orthogonalEdgeStyle;rounded=0;orthogonalLoop=1;jettySize=auto;html=1;exitX=1;exitY=0.5;exitDx=0;exitDy=0;entryX=0;entryY=0.5;entryDx=0;entryDy=0;" edge="1" parent="1" source="ZThz1ZOhO6zzR9WhR8qe-8" target="ZThz1ZOhO6zzR9WhR8qe-10">
          <mxGeometry relative="1" as="geometry" />
        </mxCell>
        <mxCell id="ZThz1ZOhO6zzR9WhR8qe-8" value="Преобразование xslt" style="rounded=0;whiteSpace=wrap;html=1;" vertex="1" parent="1">
          <mxGeometry x="200" y="20" width="120" height="60" as="geometry" />
        </mxCell>
        <mxCell id="ZThz1ZOhO6zzR9WhR8qe-12" style="edgeStyle=orthogonalEdgeStyle;rounded=0;orthogonalLoop=1;jettySize=auto;html=1;exitX=0.5;exitY=1;exitDx=0;exitDy=0;entryX=0.5;entryY=0;entryDx=0;entryDy=0;" edge="1" parent="1" source="ZThz1ZOhO6zzR9WhR8qe-10" target="ZThz1ZOhO6zzR9WhR8qe-2">
          <mxGeometry relative="1" as="geometry" />
        </mxCell>
        <mxCell id="ZThz1ZOhO6zzR9WhR8qe-10" value="Отображение на станице для редактирования" style="rounded=0;whiteSpace=wrap;html=1;" vertex="1" parent="1">
          <mxGeometry x="470" y="20" width="120" height="60" as="geometry" />
        </mxCell>
        <mxCell id="ZThz1ZOhO6zzR9WhR8qe-19" style="edgeStyle=orthogonalEdgeStyle;rounded=0;orthogonalLoop=1;jettySize=auto;html=1;exitX=0.5;exitY=1;exitDx=0;exitDy=0;exitPerimeter=0;entryX=0.5;entryY=0;entryDx=0;entryDy=0;" edge="1" parent="1" source="ZThz1ZOhO6zzR9WhR8qe-16" target="ZThz1ZOhO6zzR9WhR8qe-18">
          <mxGeometry relative="1" as="geometry" />
        </mxCell>
        <mxCell id="ZThz1ZOhO6zzR9WhR8qe-16" value="БД" style="shape=cylinder3;whiteSpace=wrap;html=1;boundedLbl=1;backgroundOutline=1;size=15;" vertex="1" parent="1">
          <mxGeometry x="130" y="-250" width="60" height="80" as="geometry" />
        </mxCell>
        <mxCell id="ZThz1ZOhO6zzR9WhR8qe-20" style="edgeStyle=orthogonalEdgeStyle;rounded=0;orthogonalLoop=1;jettySize=auto;html=1;exitX=0.5;exitY=1;exitDx=0;exitDy=0;entryX=0;entryY=0.5;entryDx=0;entryDy=0;" edge="1" parent="1" source="ZThz1ZOhO6zzR9WhR8qe-18" target="ZThz1ZOhO6zzR9WhR8qe-1">
          <mxGeometry relative="1" as="geometry">
            <Array as="points">
              <mxPoint x="160" y="20" />
              <mxPoint x="60" y="20" />
              <mxPoint x="60" y="200" />
            </Array>
          </mxGeometry>
        </mxCell>
        <mxCell id="ZThz1ZOhO6zzR9WhR8qe-18" value="Извлечение файла" style="rounded=0;whiteSpace=wrap;html=1;" vertex="1" parent="1">
          <mxGeometry x="100" y="-120" width="120" height="60" as="geometry" />
        </mxCell>
        <mxCell id="ZThz1ZOhO6zzR9WhR8qe-23" style="edgeStyle=orthogonalEdgeStyle;rounded=0;orthogonalLoop=1;jettySize=auto;html=1;exitX=0.5;exitY=1;exitDx=0;exitDy=0;exitPerimeter=0;entryX=0.5;entryY=0;entryDx=0;entryDy=0;" edge="1" parent="1" source="ZThz1ZOhO6zzR9WhR8qe-21" target="ZThz1ZOhO6zzR9WhR8qe-22">
          <mxGeometry relative="1" as="geometry" />
        </mxCell>
        <mxCell id="ZThz1ZOhO6zzR9WhR8qe-21" value="gitbucket" style="shape=cylinder3;whiteSpace=wrap;html=1;boundedLbl=1;backgroundOutline=1;size=15;" vertex="1" parent="1">
          <mxGeometry x="130" y="-480" width="60" height="80" as="geometry" />
        </mxCell>
        <mxCell id="ZThz1ZOhO6zzR9WhR8qe-22" value="парсер/оригинальный файл" style="rounded=0;whiteSpace=wrap;html=1;" vertex="1" parent="1">
          <mxGeometry x="100" y="-340" width="120" height="60" as="geometry" />
        </mxCell>
        <mxCell id="ZThz1ZOhO6zzR9WhR8qe-24" style="edgeStyle=orthogonalEdgeStyle;rounded=0;orthogonalLoop=1;jettySize=auto;html=1;exitX=0.5;exitY=1;exitDx=0;exitDy=0;entryX=0.5;entryY=0;entryDx=0;entryDy=0;entryPerimeter=0;" edge="1" parent="1" source="ZThz1ZOhO6zzR9WhR8qe-22" target="ZThz1ZOhO6zzR9WhR8qe-16">
          <mxGeometry relative="1" as="geometry" />
        </mxCell>
        <mxCell id="ZThz1ZOhO6zzR9WhR8qe-25" style="edgeStyle=orthogonalEdgeStyle;rounded=0;orthogonalLoop=1;jettySize=auto;html=1;exitX=1;exitY=0.5;exitDx=0;exitDy=0;entryX=1;entryY=0.5;entryDx=0;entryDy=0;entryPerimeter=0;" edge="1" parent="1" source="ZThz1ZOhO6zzR9WhR8qe-6" target="ZThz1ZOhO6zzR9WhR8qe-21">
          <mxGeometry relative="1" as="geometry">
            <Array as="points">
              <mxPoint x="730" y="520" />
              <mxPoint x="730" y="-440" />
            </Array>
          </mxGeometry>
        </mxCell>
      </root>
    </mxGraphModel>
  </diagram>
</mxfile>
